<svg xmlns="http://www.w3.org/2000/svg" viewBox="0 0 64 64">
  <defs>
    <linearGradient id="g" x1="0" y1="0" x2="1" y2="1">
      <stop offset="0%" stop-color="#48a8ff"/>
      <stop offset="55%" stop-color="#2fd4cf"/>
      <stop offset="100%" stop-color="#45d08c"/>
    </linearGradient>
  </defs>
  <rect x="4" y="4" width="56" height="56" rx="18" fill="#07111f"/>
  <rect x="6" y="6" width="52" height="52" rx="16" fill="url(#g)"/>
  <path d="M24 20h16c5.5 0 10 4.5 10 10v4c0 5.5-4.5 10-10 10H24c-5.5 0-10-4.5-10-10v-4c0-5.5 4.5-10 10-10Zm0 6a4 4 0 0 0-4 4v4a4 4 0 0 0 4 4h16a4 4 0 0 0 4-4v-4a4 4 0 0 0-4-4H24Z" fill="#06101c"/>
  <circle cx="32" cy="32" r="5" fill="#06101c"/>
</svg>
